<svg xmlns="http://www.w3.org/2000/svg" width="31.34" height="28.355" viewBox="0 0 31.34 28.355">
  <g id="icon" transform="translate(0.161 0.15)">
    <path id="home_1_" data-name="home (1)" d="M30.583,25.814l-14.195-11.1a1.462,1.462,0,0,0-1.759,0L.434,25.814A.947.947,0,0,0,.046,26.9a.948.948,0,0,0,.972.612H3.844V41.186A1.286,1.286,0,0,0,5.128,42.47h6.648a1.286,1.286,0,0,0,1.284-1.284V35.064h4.9v6.121a1.286,1.286,0,0,0,1.284,1.284h6.648a1.286,1.286,0,0,0,1.284-1.284V27.508H30a.917.917,0,0,0,.584-1.694Z" transform="translate(0 -14.415)" fill="#8890a6" stroke="#8890a6" stroke-width="0.3"/>
  </g>
</svg>
