<svg xmlns="http://www.w3.org/2000/svg" xmlns:xlink="http://www.w3.org/1999/xlink" width="77" height="79" viewBox="0 0 77 79">
  <defs>
    <filter id="Ellipse_1" x="0" y="0" width="77" height="79" filterUnits="userSpaceOnUse">
      <feOffset dy="3" input="SourceAlpha"/>
      <feGaussianBlur stdDeviation="3" result="blur"/>
      <feFlood flood-color="#e7eaf0" flood-opacity="0.631"/>
      <feComposite operator="in" in2="blur"/>
      <feComposite in="SourceGraphic"/>
    </filter>
  </defs>
  <g id="Groupe_2668" data-name="Groupe 2668" transform="translate(8.569 6)">
    <g id="home">
      <g transform="matrix(1, 0, 0, 1, -8.57, -6)" filter="url(#Ellipse_1)">
        <ellipse id="Ellipse_1-2" data-name="Ellipse 1" cx="29.5" cy="30.5" rx="29.5" ry="30.5" transform="translate(9 6)" fill="#29abe2"/>
      </g>
    </g>
    <g id="Wishlist" transform="translate(15.018 21.262)">
      <g id="Groupe_2155" data-name="Groupe 2155" transform="translate(0 0)">
        <path id="Tracé_1269" data-name="Tracé 1269" d="M26.588,32.325a7.224,7.224,0,0,0-11.534.83,11,11,0,0,0-.714,1.158,10.988,10.988,0,0,0-.714-1.158,7.224,7.224,0,0,0-11.534-.83A8.694,8.694,0,0,0,0,38.1a10.646,10.646,0,0,0,2.932,6.985,65.281,65.281,0,0,0,7.339,6.856c1.11.946,2.258,1.924,3.48,2.993l.037.032a.84.84,0,0,0,1.107,0l.037-.032c1.222-1.069,2.37-2.047,3.48-2.993a65.27,65.27,0,0,0,7.338-6.856A10.646,10.646,0,0,0,28.681,38.1,8.694,8.694,0,0,0,26.588,32.325Z" transform="translate(0 -29.836)" fill="#efefef" stroke="#fff" stroke-width="0.2"/>
      </g>
    </g>
  </g>
</svg>
