<svg xmlns="http://www.w3.org/2000/svg" width="30.815" height="27.34" viewBox="0 0 30.815 27.34">
  <g id="Wishlist" transform="translate(0.5 0.5)">
    <g id="Groupe_2155" data-name="Groupe 2155" transform="translate(0 0)">
      <path id="Tracé_1269" data-name="Tracé 1269" d="M27.639,32.423a7.509,7.509,0,0,0-11.99.863,11.432,11.432,0,0,0-.742,1.2,11.422,11.422,0,0,0-.742-1.2,7.509,7.509,0,0,0-11.99-.863,9.037,9.037,0,0,0-2.175,6c0,2.481.969,4.788,3.048,7.262a67.862,67.862,0,0,0,7.629,7.127c1.154.983,2.347,2,3.617,3.111l.038.033a.874.874,0,0,0,1.151,0l.038-.033c1.27-1.111,2.463-2.128,3.617-3.111a67.849,67.849,0,0,0,7.628-7.127c2.08-2.473,3.048-4.781,3.048-7.262A9.037,9.037,0,0,0,27.639,32.423Z" transform="translate(0 -29.836)" fill="#fd7e77" stroke="#fd7e77" stroke-width="1"/>
    </g>
  </g>
</svg>
