<svg id="Page-1" xmlns="http://www.w3.org/2000/svg" width="27.805" height="28" viewBox="0 0 27.805 28">
  <g id="_002---Standing-Calendar" data-name="002---Standing-Calendar">
    <path id="Rectangle-path" d="M19,39h1.5v1.5H19Z" transform="translate(-9.5 -19.5)" fill="#29abe2"/>
    <path id="Rectangle-path-2" data-name="Rectangle-path" d="M19,48h1.5v1.5H19Z" transform="translate(-9.5 -24)" fill="#29abe2"/>
    <path id="Rectangle-path-3" data-name="Rectangle-path" d="M28,39h1.5v1.5H28Z" transform="translate(-14 -19.5)" fill="#29abe2"/>
    <path id="Rectangle-path-4" data-name="Rectangle-path" d="M19,21h1.5v1.5H19Z" transform="translate(-9.5 -10.5)" fill="#29abe2"/>
    <path id="Rectangle-path-5" data-name="Rectangle-path" d="M10,21h1.5v1.5H10Z" transform="translate(-5 -10.5)" fill="#29abe2"/>
    <path id="Rectangle-path-6" data-name="Rectangle-path" d="M28,48h1.5v1.5H28Z" transform="translate(-14 -24)" fill="#29abe2"/>
    <path id="Rectangle-path-7" data-name="Rectangle-path" d="M10,39h1.5v1.5H10Z" transform="translate(-5 -19.5)" fill="#29abe2"/>
    <path id="Rectangle-path-8" data-name="Rectangle-path" d="M10,30h1.5v1.5H10Z" transform="translate(-5 -15)" fill="#29abe2"/>
    <path id="Shape" d="M28.5,4.5A.5.5,0,0,0,29,4V.5a.5.5,0,1,0-1,0V4A.5.5,0,0,0,28.5,4.5Z" transform="translate(-14)" fill="#29abe2"/>
    <path id="Shape-2" data-name="Shape" d="M39.5,4.5A.5.5,0,0,0,40,4V.5a.5.5,0,1,0-1,0V4A.5.5,0,0,0,39.5,4.5Z" transform="translate(-19.5)" fill="#29abe2"/>
    <path id="Shape-3" data-name="Shape" d="M17.5,4.5A.5.5,0,0,0,18,4V.5a.5.5,0,1,0-1,0V4A.5.5,0,0,0,17.5,4.5Z" transform="translate(-8.5)" fill="#29abe2"/>
    <path id="Shape-4" data-name="Shape" d="M6.5,4.5A.5.5,0,0,0,7,4V.5a.5.5,0,0,0-1,0V4A.5.5,0,0,0,6.5,4.5Z" transform="translate(-3)" fill="#29abe2"/>
    <path id="Rectangle-path-9" data-name="Rectangle-path" d="M28,30h1.5v1.5H28Z" transform="translate(-14 -15)" fill="#29abe2"/>
    <path id="Rectangle-path-10" data-name="Rectangle-path" d="M10,48h1.5v1.5H10Z" transform="translate(-5 -24)" fill="#29abe2"/>
    <path id="Rectangle-path-11" data-name="Rectangle-path" d="M19,30h1.5v1.5H19Z" transform="translate(-9.5 -15)" fill="#29abe2"/>
    <path id="Rectangle-path-12" data-name="Rectangle-path" d="M37,21h1.5v1.5H37Z" transform="translate(-18.5 -10.5)" fill="#29abe2"/>
    <path id="Rectangle-path-13" data-name="Rectangle-path" d="M37,30h1.5v1.5H37Z" transform="translate(-18.5 -15)" fill="#29abe2"/>
    <path id="Rectangle-path-14" data-name="Rectangle-path" d="M37,48h1.5v1.5H37Z" transform="translate(-18.5 -24)" fill="#29abe2"/>
    <path id="Rectangle-path-15" data-name="Rectangle-path" d="M37,39h1.5v1.5H37Z" transform="translate(-18.5 -19.5)" fill="#29abe2"/>
    <path id="Shape-5" data-name="Shape" d="M20,9.5A1.5,1.5,0,0,1,18.5,8H16a1.5,1.5,0,0,1-3,0H10.5a1.5,1.5,0,0,1-3,0H5A1.5,1.5,0,0,1,2,8H1A1,1,0,0,0,0,9V31a1,1,0,0,0,1,1H23a1,1,0,0,0,1-1V9a1,1,0,0,0-1-1H21.5A1.5,1.5,0,0,1,20,9.5ZM7.5,29.5a1,1,0,0,1-1,1H5a1,1,0,0,1-1-1V28a1,1,0,0,1,1-1H6.5a1,1,0,0,1,1,1Zm0-4.5a1,1,0,0,1-1,1H5a1,1,0,0,1-1-1V23.5a1,1,0,0,1,1-1H6.5a1,1,0,0,1,1,1Zm0-4.5a1,1,0,0,1-1,1H5a1,1,0,0,1-1-1V19a1,1,0,0,1,1-1H6.5a1,1,0,0,1,1,1Zm0-4.5a1,1,0,0,1-1,1H5a1,1,0,0,1-1-1V14.5a1,1,0,0,1,1-1H6.5a1,1,0,0,1,1,1ZM12,29.5a1,1,0,0,1-1,1H9.5a1,1,0,0,1-1-1V28a1,1,0,0,1,1-1H11a1,1,0,0,1,1,1ZM12,25a1,1,0,0,1-1,1H9.5a1,1,0,0,1-1-1V23.5a1,1,0,0,1,1-1H11a1,1,0,0,1,1,1Zm0-4.5a1,1,0,0,1-1,1H9.5a1,1,0,0,1-1-1V19a1,1,0,0,1,1-1H11a1,1,0,0,1,1,1ZM12,16a1,1,0,0,1-1,1H9.5a1,1,0,0,1-1-1V14.5a1,1,0,0,1,1-1H11a1,1,0,0,1,1,1Zm4.5,13.5a1,1,0,0,1-1,1H14a1,1,0,0,1-1-1V28a1,1,0,0,1,1-1h1.5a1,1,0,0,1,1,1Zm0-4.5a1,1,0,0,1-1,1H14a1,1,0,0,1-1-1V23.5a1,1,0,0,1,1-1h1.5a1,1,0,0,1,1,1Zm0-4.5a1,1,0,0,1-1,1H14a1,1,0,0,1-1-1V19a1,1,0,0,1,1-1h1.5a1,1,0,0,1,1,1Zm0-4.5a1,1,0,0,1-1,1H14a1,1,0,0,1-1-1V14.5a1,1,0,0,1,1-1h1.5a1,1,0,0,1,1,1ZM21,29.5a1,1,0,0,1-1,1H18.5a1,1,0,0,1-1-1V28a1,1,0,0,1,1-1H20a1,1,0,0,1,1,1ZM21,25a1,1,0,0,1-1,1H18.5a1,1,0,0,1-1-1V23.5a1,1,0,0,1,1-1H20a1,1,0,0,1,1,1Zm0-4.5a1,1,0,0,1-1,1H18.5a1,1,0,0,1-1-1V19a1,1,0,0,1,1-1H20a1,1,0,0,1,1,1ZM21,16a1,1,0,0,1-1,1H18.5a1,1,0,0,1-1-1V14.5a1,1,0,0,1,1-1H20a1,1,0,0,1,1,1Zm1.5-4a.5.5,0,0,1-.5.5H3V30a.5.5,0,1,1-1,0V12.5H1.5a.5.5,0,1,1,0-1H2V11a.5.5,0,0,1,1,0v.5H22A.5.5,0,0,1,22.5,12Z" transform="translate(0 -4)" fill="#29abe2"/>
    <path id="Rectangle-path-16" data-name="Rectangle-path" d="M28,21h1.5v1.5H28Z" transform="translate(-14 -10.5)" fill="#29abe2"/>
    <path id="Shape-6" data-name="Shape" d="M50,18.318V35.159h1.805a1,1,0,0,0,.985-1.176Z" transform="translate(-25 -9.159)" fill="#29abe2"/>
  </g>
</svg>
