<svg xmlns="http://www.w3.org/2000/svg" width="24.485" height="28" viewBox="0 0 24.485 28">
  <g id="book" transform="translate(-32.133)">
    <path id="Tracé_8680" data-name="Tracé 8680" d="M86.175,0H65.087a.82.82,0,0,0-.82.82V2.647H65.2a2.461,2.461,0,1,1,0,4.922h-.937V8.575H65.2a2.461,2.461,0,1,1,0,4.922h-.937V14.5H65.2a2.461,2.461,0,1,1,0,4.922h-.937v1.006H65.2a2.461,2.461,0,0,1,0,4.922h-.937V27.18a.82.82,0,0,0,.82.82H86.175a.82.82,0,0,0,.82-.82V.82a.82.82,0,0,0-.82-.82ZM74.811,18.335H71.238a.82.82,0,0,1,0-1.641h3.573a.82.82,0,0,1,0,1.641Zm5.214-3.515H71.238a.82.82,0,1,1,0-1.641h8.786a.82.82,0,0,1,0,1.641Zm0-3.515H71.238a.82.82,0,1,1,0-1.641h8.786a.82.82,0,0,1,0,1.641Z" transform="translate(-30.377)" fill="#2eb7f1"/>
    <path id="Tracé_8681" data-name="Tracé 8681" d="M35.648,404.42a.82.82,0,0,0-.82-.82H32.953a.82.82,0,1,0,0,1.641h1.874A.82.82,0,0,0,35.648,404.42Z" transform="translate(0 -381.528)" fill="#2eb7f1"/>
    <path id="Tracé_8682" data-name="Tracé 8682" d="M32.953,296.841h1.874a.82.82,0,0,0,0-1.641H32.953a.82.82,0,0,0,0,1.641Z" transform="translate(0 -279.056)" fill="#2eb7f1"/>
    <path id="Tracé_8683" data-name="Tracé 8683" d="M32.953,188.441h1.874a.82.82,0,0,0,0-1.641H32.953a.82.82,0,1,0,0,1.641Z" transform="translate(0 -176.584)" fill="#2eb7f1"/>
    <path id="Tracé_8684" data-name="Tracé 8684" d="M32.953,80.041h1.874a.82.82,0,0,0,0-1.641H32.953a.82.82,0,1,0,0,1.641Z" transform="translate(0 -74.113)" fill="#2eb7f1"/>
  </g>
</svg>
