<svg xmlns="http://www.w3.org/2000/svg" width="30.688" height="20.445" viewBox="0 0 30.688 20.445">
  <g id="credit-card" transform="translate(0 -85.334)">
    <path id="Tracé_8695" data-name="Tracé 8695" d="M0,213.387v7.942a4.141,4.141,0,0,0,4.141,4.141H26.547a4.141,4.141,0,0,0,4.141-4.141v-7.942a.72.72,0,0,0-.72-.72H.72A.72.72,0,0,0,0,213.387Zm7.662,5.041H5.741a1.26,1.26,0,1,1,0-2.521h1.92a1.26,1.26,0,1,1,0,2.521Z" transform="translate(0 -119.691)" fill="#2eb7f1"/>
    <path id="Tracé_8696" data-name="Tracé 8696" d="M30.688,89.735v-.26a4.141,4.141,0,0,0-4.141-4.141H4.141A4.141,4.141,0,0,0,0,89.475v.26a.72.72,0,0,0,.72.72H29.967A.72.72,0,0,0,30.688,89.735Z" fill="#2eb7f1"/>
  </g>
</svg>
