<svg id="Forward_Icon" data-name="Forward Icon" xmlns="http://www.w3.org/2000/svg" width="30.529" height="25.219" viewBox="0 0 30.529 25.219">
  <path id="Path" d="M65,39.216,49.687,28.887a2.015,2.015,0,0,0-2.168-.068,2.31,2.31,0,0,0-1.1,2V51.474a2.308,2.308,0,0,0,1.1,2,2.014,2.014,0,0,0,2.168-.068L65,43.073a2.367,2.367,0,0,0,0-3.858Z" transform="translate(-35.465 -28.535)" fill="#323232"/>
  <path id="Path-2" data-name="Path" d="M22.739,28.818a2.309,2.309,0,0,0-1.1,2V51.474a2.308,2.308,0,0,0,1.1,2,2.014,2.014,0,0,0,2.168-.068l6.753-4.9V33.784l-6.753-4.9A2.015,2.015,0,0,0,22.739,28.818Z" transform="translate(-21.636 -28.535)" fill="#323232"/>
</svg>
