<svg xmlns="http://www.w3.org/2000/svg" width="27.982" height="24.744" viewBox="0 0 27.982 24.744">
  <g id="Wishlist" transform="translate(0.1 0.1)">
    <g id="Groupe_2155" data-name="Groupe 2155" transform="translate(0 0)">
      <path id="Tracé_1269" data-name="Tracé 1269" d="M25.755,32.247a7,7,0,0,0-11.173.8,10.652,10.652,0,0,0-.692,1.121,10.644,10.644,0,0,0-.692-1.121,7,7,0,0,0-11.173-.8A8.421,8.421,0,0,0,0,37.84a10.313,10.313,0,0,0,2.84,6.767,63.235,63.235,0,0,0,7.109,6.642c1.075.916,2.187,1.864,3.37,2.9l.036.031a.814.814,0,0,0,1.072,0l.036-.031c1.184-1.036,2.3-1.983,3.371-2.9a63.225,63.225,0,0,0,7.108-6.641,10.313,10.313,0,0,0,2.84-6.767A8.421,8.421,0,0,0,25.755,32.247Z" transform="translate(0 -29.836)" fill="#8890a6" stroke="#8890a6" stroke-width="0.2"/>
    </g>
  </g>
</svg>
