<svg id="login" xmlns="http://www.w3.org/2000/svg" width="28.08" height="28.08" viewBox="0 0 28.08 28.08">
  <path id="Tracé_8705" data-name="Tracé 8705" d="M169.354,5.272h-.6V3.5a3.5,3.5,0,0,0-6.993,0V5.272h-.6A1.153,1.153,0,0,0,160,6.425v4.1a5.254,5.254,0,1,0,10.507,0v-4.1a1.153,1.153,0,0,0-1.153-1.153ZM164.064,3.5a1.19,1.19,0,1,1,2.38,0V5.272h-2.38Z" transform="translate(-151.214)" fill="#2eb7f1"/>
  <path id="Tracé_8706" data-name="Tracé 8706" d="M22.826,320H5.254a5.254,5.254,0,1,0,0,10.507H22.826a5.254,5.254,0,1,0,0-10.507ZM7.011,326.425a1.172,1.172,0,1,1,1.172-1.172A1.171,1.171,0,0,1,7.011,326.425Zm4.686,0a1.172,1.172,0,1,1,1.172-1.172A1.171,1.171,0,0,1,11.7,326.425Zm4.686,0a1.172,1.172,0,1,1,1.172-1.172A1.171,1.171,0,0,1,16.383,326.425Zm4.686,0a1.172,1.172,0,1,1,1.172-1.172A1.171,1.171,0,0,1,21.069,326.425Z" transform="translate(0 -302.427)" fill="#2eb7f1"/>
</svg>
