<svg xmlns="http://www.w3.org/2000/svg" width="27.233" height="27.233" viewBox="0 0 27.233 27.233">
  <g id="logout" transform="translate(0 -0.004)">
    <path id="Tracé_8700" data-name="Tracé 8700" d="M17.021,14.755a1.134,1.134,0,0,0-1.135,1.135v4.539a1.136,1.136,0,0,1-1.135,1.135h-3.4V4.543A2.287,2.287,0,0,0,9.8,2.386l-.336-.112h5.286a1.136,1.136,0,0,1,1.135,1.135v3.4a1.135,1.135,0,0,0,2.269,0v-3.4a3.408,3.408,0,0,0-3.4-3.4H2.553a.891.891,0,0,0-.121.025C2.377.024,2.325,0,2.269,0A2.272,2.272,0,0,0,0,2.273V22.7a2.287,2.287,0,0,0,1.545,2.157l6.829,2.276a2.349,2.349,0,0,0,.7.106,2.272,2.272,0,0,0,2.269-2.269V23.833h3.4a3.408,3.408,0,0,0,3.4-3.4V15.89a1.134,1.134,0,0,0-1.135-1.135Zm0,0" fill="#29abe2"/>
    <path id="Tracé_8701" data-name="Tracé 8701" d="M289.482,111.537,284.943,107a1.134,1.134,0,0,0-1.937.8v3.4h-4.539a1.135,1.135,0,1,0,0,2.269h4.539v3.4a1.134,1.134,0,0,0,1.937.8l4.539-4.539A1.133,1.133,0,0,0,289.482,111.537Zm0,0" transform="translate(-262.581 -100.988)" fill="#29abe2"/>
  </g>
</svg>
