<svg xmlns="http://www.w3.org/2000/svg" width="19.307" height="14.48" viewBox="0 0 19.307 14.48">
  <g id="mail" transform="translate(0 -32)">
    <g id="Groupe_2466" data-name="Groupe 2466" transform="translate(0 32)">
      <g id="Groupe_2465" data-name="Groupe 2465">
        <path id="Tracé_8703" data-name="Tracé 8703" d="M7.056,65.175c2.65,2.244,7.3,6.192,8.666,7.423a.807.807,0,0,0,1.168,0c1.368-1.232,6.017-5.181,8.667-7.425a.4.4,0,0,0,.057-.555A1.6,1.6,0,0,0,24.351,64H8.262A1.6,1.6,0,0,0,7,64.62.4.4,0,0,0,7.056,65.175Z" transform="translate(-6.653 -64)" fill="#2eb7f1"/>
        <path id="Tracé_8704" data-name="Tracé 8704" d="M19.073,126.449a.4.4,0,0,0-.429.058c-2.939,2.491-6.689,5.684-7.869,6.747a1.629,1.629,0,0,1-2.245,0c-1.258-1.133-5.469-4.714-7.868-6.747a.4.4,0,0,0-.662.307v10.115a1.61,1.61,0,0,0,1.609,1.609H17.7a1.61,1.61,0,0,0,1.609-1.609V126.814A.4.4,0,0,0,19.073,126.449Z" transform="translate(0 -124.058)" fill="#2eb7f1"/>
      </g>
    </g>
  </g>
</svg>
