<svg xmlns="http://www.w3.org/2000/svg" width="30.529" height="25.219" viewBox="0 0 30.529 25.219">
  <g id="Rewind_icon" data-name="Rewind icon" transform="translate(30.529 25.219) rotate(180)">
    <path id="Path" d="M18.583,10.681,3.271.352A2.015,2.015,0,0,0,1.1.283a2.31,2.31,0,0,0-1.1,2V22.939a2.308,2.308,0,0,0,1.1,2,2.014,2.014,0,0,0,2.168-.068L18.583,14.539a2.367,2.367,0,0,0,0-3.858Z" transform="translate(10.951)" fill="#323232"/>
    <path id="Path-2" data-name="Path" d="M1.1.283a2.309,2.309,0,0,0-1.1,2V22.939a2.308,2.308,0,0,0,1.1,2,2.014,2.014,0,0,0,2.168-.068l6.753-4.9V5.249L3.271.352A2.015,2.015,0,0,0,1.1.283Z" transform="translate(0)" fill="#323232"/>
  </g>
</svg>
