<svg id="Shuffle_Icon" data-name="Shuffle Icon" xmlns="http://www.w3.org/2000/svg" width="38.563" height="30.889" viewBox="0 0 38.563 30.889">
  <path id="Path" d="M68.332,60.624l-7.039-4.064a1.645,1.645,0,0,0-2.468,1.425V60.4H53.813c-1.789,0-2.971-1.238-3.974-3.355l-.036.116c-.4,1.315-.81,2.676-1.3,3.966a6.566,6.566,0,0,0,5.306,2.563h5.013v2.418a1.645,1.645,0,0,0,2.468,1.425l7.039-4.064a1.644,1.644,0,0,0,0-2.849Z" transform="translate(-30.593 -36.869)" fill="#29abe2"/>
  <path id="Path-2" data-name="Path" d="M39.066,28.2h5.013v2.418a1.645,1.645,0,0,0,2.468,1.425l7.039-4.064a1.645,1.645,0,0,0,0-2.85l-7.039-4.064a1.645,1.645,0,0,0-2.468,1.425V24.9H39.066c-3.884,0-5.958,2.777-7.392,6.214-1.337-3.4-3.246-6.214-6.869-6.214H17.492a1.645,1.645,0,0,0,0,3.291h7.313c2.466,0,3.64,3.2,5.122,8.09-1.482,4.891-2.656,8.09-5.122,8.09H17.492a1.645,1.645,0,0,0,0,3.291h7.313c5.12,0,6.818-5.615,8.315-10.57C34.747,31.72,36.039,28.2,39.066,28.2Z" transform="translate(-15.847 -20.841)" fill="#29abe2"/>
</svg>
