<svg xmlns="http://www.w3.org/2000/svg" width="30.195" height="25.799" viewBox="0 0 30.195 25.799">
  <g id="student" transform="translate(0 -37.27)">
    <g id="Groupe_2439" data-name="Groupe 2439" transform="translate(0 37.27)">
      <g id="Groupe_2438" data-name="Groupe 2438">
        <path id="Tracé_8674" data-name="Tracé 8674" d="M30.2,55.712a2.65,2.65,0,0,0-1.769-2.491V44.057l1.769-.729L15.1,37.27,0,43.328l15.1,6.058,11.559-4.618v8.454A2.638,2.638,0,0,0,26.4,58.1l-1.47,4.41,1.678.56.93-2.791.93,2.791,1.678-.56L28.68,58.1A2.65,2.65,0,0,0,30.2,55.712Z" transform="translate(0 -37.27)" fill="#29abe2"/>
      </g>
    </g>
    <g id="Groupe_2441" data-name="Groupe 2441" transform="translate(7.136 48.095)">
      <g id="Groupe_2440" data-name="Groupe 2440">
        <path id="Tracé_8675" data-name="Tracé 8675" d="M128.962,224.017,121,220.82v2.31c0,2.522,3.423,4.423,7.962,4.423s7.962-1.9,7.962-4.423v-2.31Z" transform="translate(-121 -220.82)" fill="#29abe2"/>
      </g>
    </g>
  </g>
</svg>
